PathFileType	4	(X/Y/Z)	C:\Users\ebm\Documents\Erivelton\Erivelton2\wc2.trc
DataRate	CameraRate	NumFrames	NumMarkers	Units	OrigDataRate	OrigDataStartFrame	OrigNumFrames
150.00	150.00	      60	28	mm	150.00	1	      1389
Frame#	Time	IJ			PX			C7			T8			RAC			RAS			RPS			RAI			RPI			RLE			RME			RRS			RUS			R3M			R5M			LAC			LAS			LPS			LAI			LPI			LLE			LME			LRS			LUS			L3M			L5M			RW			LW			V_mid_elbow_r			V_mid_elbow_l			V_mid_wrist_r			V_mid_wrist_l			V_mid_trunk_low			V_mid_trunk_upp			
		X1	Y1	Z1	X2	Y2	Z2	X3	Y3	Z3	X4	Y4	Z4	X5	Y5	Z5	X6	Y6	Z6	X7	Y7	Z7	X8	Y8	Z8	X9	Y9	Z9	X10	Y10	Z10	X11	Y11	Z11	X12	Y12	Z12	X13	Y13	Z13	X14	Y14	Z14	X15	Y15	Z15	X16	Y16	Z16	X17	Y17	Z17	X18	Y18	Z18	X19	Y19	Z19	X20	Y20	Z20	X21	Y21	Z21	X22	Y22	Z22	X23	Y23	Z23	X24	Y24	Z24	X25	Y25	Z25	X26	Y26	Z26	X27	Y27	Z27	X28	Y28	Z28	

1	0.000							-1787.59131	1114.36780	-19.69579				-1725.55054	1068.69775	187.71597							-1591.18188	829.14044	241.02428																																																													
2	0.007							-1787.61646	1114.37170	-19.69213				-1725.58411	1068.71021	187.70399							-1591.16956	829.15063	241.01605																																																													
3	0.013							-1787.62476	1114.36377	-19.69512				-1725.60767	1068.70544	187.72076							-1591.17847	829.16431	241.03389																																																													
4	0.020							-1787.64624	1114.36145	-19.69015				-1725.62280	1068.69312	187.71736							-1591.19409	829.15942	241.04568																																																													
5	0.027							-1787.66113	1114.35352	-19.68282				-1725.64050	1068.67798	187.72772							-1591.18359	829.15344	241.02003																																																													
6	0.033							-1787.69287	1114.35364	-19.68239				-1725.66760	1068.68066	187.74010							-1591.21301	829.17029	241.04646																																																													
7	0.040							-1787.69861	1114.34058	-19.67927				-1725.69641	1068.67322	187.76312							-1591.21716	829.15717	241.03230																																																													
8	0.047							-1787.71130	1114.33069	-19.67622				-1725.69788	1068.63330	187.72935							-1591.23401	829.17230	241.05652																																																													
9	0.053							-1787.71912	1114.31116	-19.67120				-1725.76074	1068.62122	187.77707							-1591.22766	829.12555	241.05272																																																													
10	0.060							-1787.73511	1114.30981	-19.66167				-1725.78906	1068.60242	187.78976							-1591.25476	829.13239	241.07243																																																													
11	0.067							-1787.75342	1114.30676	-19.66157				-1725.80432	1068.57935	187.80792							-1591.26526	829.11548	241.06685																																																													
12	0.073							-1787.75684	1114.28418	-19.64935				-1725.85193	1068.58899	187.84123							-1591.27112	829.10065	241.06624																																																													
13	0.080							-1787.77441	1114.29065	-19.64696				-1725.85657	1068.54639	187.82069							-1591.30957	829.09564	241.09030																																																													
14	0.087							-1787.78284	1114.27466	-19.62888				-1725.89404	1068.55493	187.85162							-1591.30945	829.06464	241.06801																																																													
15	0.093							-1787.80420	1114.28125	-19.62833				-1725.91907	1068.54126	187.86797							-1591.33167	829.06854	241.08241																																																													
16	0.100							-1787.87866	1114.30103	-19.64187				-1725.93616	1068.51978	187.84991							-1591.34424	829.04877	241.08282																																																													
17	0.107							-1787.89624	1114.31006	-19.63363				-1725.95166	1068.50623	187.86620							-1591.36450	829.02698	241.08571																																																													
18	0.113							-1787.83557	1114.26257	-19.60287				-1725.96838	1068.49219	187.87993							-1591.37158	828.98981	241.06265																																																													
19	0.120							-1787.92297	1114.30408	-19.62285				-1725.97412	1068.48535	187.85910							-1591.38721	829.00580	241.04582																																																													
20	0.127							-1787.93445	1114.30518	-19.60823				-1725.99121	1068.48572	187.87779							-1591.40027	828.98706	241.07379																																																													
21	0.133							-1787.94971	1114.31726	-19.60249				-1726.02063	1068.50317	187.89671							-1591.43042	829.00647	241.06154																																																													
22	0.140							-1787.95569	1114.31372	-19.58759				-1726.03320	1068.49878	187.92505							-1591.42761	828.97003	241.04385																																																													
23	0.147							-1787.96399	1114.31836	-19.57560				-1726.02795	1068.47681	187.91679							-1591.42798	828.96960	241.04295																																																													
24	0.153							-1787.96521	1114.31494	-19.56465				-1726.01416	1068.44312	187.89973							-1591.44824	828.95746	241.04637																																																													
25	0.160							-1787.96155	1114.32080	-19.55484				-1726.04321	1068.46704	187.94559							-1591.44165	828.93744	241.02893																																																													
26	0.167							-1787.97961	1114.33020	-19.53902				-1726.03064	1068.45007	187.92950							-1591.44641	828.93359	241.02441																																																													
27	0.173							-1787.98584	1114.33325	-19.53812				-1726.06104	1068.45667	187.96017							-1591.45691	828.93164	241.03629																																																													
28	0.180							-1787.97498	1114.32727	-19.52301				-1726.06372	1068.46155	187.97284							-1591.44495	828.89978	241.03497																																																													
29	0.187							-1787.97827	1114.32922	-19.51368				-1726.04736	1068.41345	187.96217							-1591.45789	828.92432	241.02812																																																													
30	0.193							-1787.98010	1114.32288	-19.50839				-1726.08740	1068.45203	187.98351							-1591.46863	828.95825	241.06398																																																													
31	0.200							-1787.99805	1114.33325	-19.50646				-1726.08545	1068.43860	187.98581							-1591.45374	828.94073	241.07573																																																													
32	0.207							-1787.99817	1114.33179	-19.49334				-1726.09558	1068.43799	188.00856							-1591.46362	828.91602	241.02579																																																													
33	0.213							-1788.00635	1114.32800	-19.49435				-1726.06873	1068.38611	187.99887							-1591.46252	828.96436	241.09808																																																													
34	0.220							-1787.99915	1114.33093	-19.48267				-1726.09656	1068.41980	188.02664							-1591.44470	828.93402	241.10127																																																													
35	0.227							-1788.00244	1114.32666	-19.46709				-1726.10876	1068.41492	188.02371							-1591.44592	828.89313	241.06288																																																													
36	0.233							-1788.00708	1114.31628	-19.45994				-1726.09277	1068.36963	188.03471							-1591.45178	828.93018	241.10645																																																													
37	0.240							-1788.01294	1114.32471	-19.45105				-1726.10571	1068.37744	188.06116							-1591.45398	828.94531	241.15845																																																													
38	0.247							-1788.02588	1114.32678	-19.44250				-1726.10486	1068.36755	188.05798							-1591.44812	828.89636	241.10258																																																													
39	0.253							-1788.01941	1114.32446	-19.43738				-1726.09436	1068.33362	188.06311							-1591.44971	828.88068	241.12689																																																													
40	0.260							-1788.02637	1114.32739	-19.43062				-1726.10815	1068.33423	188.08008							-1591.45142	828.87433	241.12735																																																													
41	0.267							-1788.01941	1114.32861	-19.41836				-1726.12024	1068.33472	188.06383							-1591.45203	828.87231	241.12512																																																													
42	0.273							-1788.01904	1114.32581	-19.40986				-1726.12109	1068.31152	188.09805							-1591.46204	828.87573	241.13260																																																													
43	0.280							-1788.02515	1114.32654	-19.40504				-1726.12012	1068.27856	188.08253							-1591.46619	828.86261	241.14676																																																													
44	0.287							-1788.02600	1114.33508	-19.39154				-1726.14417	1068.27490	188.08980							-1591.47449	828.86963	241.13350																																																													
45	0.293							-1788.03906	1114.33667	-19.39552				-1726.14319	1068.24695	188.07112							-1591.49817	828.88043	241.12015																																																													
46	0.300							-1788.03064	1114.33435	-19.38380				-1726.15100	1068.23828	188.07082							-1591.53223	828.88666	241.13388																																																													
47	0.307							-1788.04004	1114.33203	-19.36634				-1726.13513	1068.18567	188.05263							-1591.54773	828.89642	241.14783																																																													
48	0.313							-1788.05225	1114.33740	-19.35862				-1726.12793	1068.13696	188.00165							-1591.57556	828.92969	241.16214																																																													
49	0.320							-1788.06799	1114.34509	-19.34001				-1726.12170	1068.09668	187.97946							-1591.61206	828.95251	241.17314																																																													
50	0.327							-1788.08020	1114.32544	-19.32688				-1726.06335	1068.00037	187.89183							-1591.68262	829.03259	241.20821																																																													
51	0.333							-1788.08630	1114.32141	-19.31504				-1725.97424	1067.87415	187.78021							-1591.73193	829.11273	241.26678																																																													
52	0.340							-1788.10840	1114.30664	-19.31404				-1725.88171	1067.79053	187.64401							-1591.81189	829.19067	241.33249																																																													
53	0.347							-1788.08093	1114.29675	-19.32039				-1725.76514	1067.73901	187.48094							-1591.92126	829.32977	241.43643																																																													
54	0.353							-1788.05188	1114.29871	-19.34866				-1725.63782	1067.71228	187.27811							-1592.02612	829.45752	241.55368																																																													
55	0.360							-1787.99219	1114.28186	-19.35576				-1725.49719	1067.72583	187.08521							-1592.14905	829.57861	241.72478																																																													
56	0.367							-1787.93420	1114.24915	-19.37288				-1725.34656	1067.75891	186.84157							-1592.34241	829.75671	241.97542																																																													
57	0.373							-1787.87549	1114.19043	-19.38386				-1725.20386	1067.83191	186.63432							-1592.56543	829.90161	242.26965																																																													
58	0.380							-1787.76685	1114.14832	-19.37241				-1725.11438	1067.86841	186.45412							-1592.90466	830.02869	242.68346																																																													
59	0.387							-1787.68689	1114.15503	-19.39384				-1725.09412	1067.92676	186.32533							-1593.32324	830.14594	243.22984																																																													
60	0.393							-1787.59253	1114.18982	-19.42432				-1725.10596	1067.96277	186.24142							-1593.77881	830.19501	243.76448																																																													
